<svg xmlns="http://www.w3.org/2000/svg" width="33" height="33" viewBox="0 0 33 33">
    <g fill="none" fill-rule="evenodd">
        <g fill="#74C8E4">
            <g>
                <g>
                    <path d="M16.5 0C25.613 0 33 7.387 33 16.5S25.613 33 16.5 33 0 25.613 0 16.5 7.387 0 16.5 0zm-4.104 8.253c-.215-.218-.528-.303-.821-.224-.294.08-.523.313-.602.611-.078.298.006.616.22.834l1.554 1.579h-1.772c-.789 0-1.546.318-2.104.885-.558.566-.871 1.335-.871 2.136v6.905c0 .801.313 1.57.871 2.136.558.567 1.315.885 2.104.885h11.05c.789 0 1.546-.318 2.104-.885.558-.566.871-1.335.871-2.136v-6.905c0-.801-.313-1.57-.871-2.136-.558-.567-1.315-.885-2.104-.885h-1.773l1.555-1.577c.332-.337.332-.884 0-1.221-.333-.338-.871-.338-1.203 0l-2.757 2.798h-2.695l-2.756-2.8zm9.629 4.526c.704 0 1.275.58 1.275 1.295v6.905l-.006.124c-.063.664-.612 1.17-1.269 1.17h-11.05l-.122-.005c-.654-.064-1.153-.622-1.153-1.289v-6.905l.006-.124c.063-.664.612-1.17 1.269-1.17zM13.1 15.37c-.47 0-.85.386-.85.863v1.726c0 .477.38.863.85.863s.85-.386.85-.863v-1.726c0-.477-.38-.863-.85-.863zm6.8 0c-.47 0-.85.386-.85.863v1.726c0 .477.38.863.85.863s.85-.386.85-.863v-1.726c0-.477-.38-.863-.85-.863z" transform="translate(-893 -560) translate(170 508) translate(723 52)"/>
                </g>
            </g>
        </g>
    </g>
</svg>
