<svg xmlns="http://www.w3.org/2000/svg" width="33" height="35" viewBox="0 0 33 35">
    <g fill="none" fill-rule="evenodd">
        <g fill-rule="nonzero">
            <g>
                <g>
                    <g>
                        <path fill="#34495E" d="M22.465 5L16.479 15.41 10.535 5 1 5 16.479 32 32 5z" transform="translate(-439 -732) translate(170 671) translate(0 60) translate(269 1)"/>
                        <path fill="#563D7C" d="M1 0L32 0 16.459 27z" transform="translate(-439 -732) translate(170 671) translate(0 60) translate(269 1)"/>
                        <path fill="#FFF" d="M11 4h5.867c1.11 0 1.955.22 2.622.706.667.53.978 1.235.978 2.25 0 .618-.134 1.147-.445 1.544-.31.441-.71.794-1.289 1.015v.044c.756.132 1.334.485 1.69 1.059.4.53.577 1.19.577 2.03 0 .484-.089.926-.267 1.323-.133.397-.4.75-.755 1.058-.4.265-.845.53-1.422.706-.534.177-1.245.265-2 .265H11V4zm2.133 5.03h3.423c.533 0 .933-.177 1.288-.442.356-.309.49-.706.49-1.235 0-.618-.134-1.059-.445-1.28-.311-.264-.756-.397-1.333-.397h-3.423V9.03zm0 5.25h3.734c.622 0 1.155-.177 1.466-.486.356-.353.578-.838.578-1.412 0-.617-.178-1.058-.578-1.367-.355-.353-.844-.486-1.466-.486h-3.734v3.75z" transform="translate(-439 -732) translate(170 671) translate(0 60) translate(269 1)"/>
                        <path fill="#41B883" d="M26.408 7L16.5 23.8 6.592 7 0 7 16.5 35 33 7z" transform="translate(-439 -732) translate(170 671) translate(0 60) translate(269 1)"/>
                    </g>
                </g>
            </g>
        </g>
    </g>
</svg>
