<svg xmlns="http://www.w3.org/2000/svg" width="33" height="33" viewBox="0 0 33 33">
    <g fill="none" fill-rule="evenodd">
        <g fill="#C92027">
            <g>
                <g>
                    <path d="M16.5 0C25.613 0 33 7.387 33 16.5S25.613 33 16.5 33 0 25.613 0 16.5 7.387 0 16.5 0zm1.44 14c-.667 0-1.153.037-1.469.073L16 18.89c.466.072 1.079.109 1.721.109 1.09 0 1.814-.153 2.39-.51.628-.379 1.06-.991 1.145-1.866.092-.94-.241-1.589-.743-1.99-.558-.43-1.459-.634-2.573-.634zm9.038 2.381c.14-1.415-.252-3.014-4.784-2.124l-.185 2.074-.28 2.669h1.41l.274-2.708.014-.12.026-.251c.037-.377.064-.734.064-.734s.269-.077.81-.091c1.565-.039 1.24.99 1.189 1.516L25.276 19h1.437zM8.538 14c-1.763 0-3.374.926-3.528 2.573C4.882 17.955 5.97 19 7.983 19c.7 0 1.202-.063 1.443-.156l.098-1.057c-.277.093-.877.157-1.283.157-1.167 0-1.785-.462-1.695-1.429.1-1.08.982-1.422 2.02-1.422.475 0 1.062.086 1.313.18l.121-1.11C9.623 14.06 9.221 14 8.538 14zm5.52 0c-1.61 0-2.66.625-2.742 1.451-.07.711.642 1.157 1.756 1.444.806.202 1.098.242 1.07.536-.032.323-.43.532-1.144.532-.662 0-1.482-.15-1.875-.302L11 18.698c.373.151 1.05.302 1.835.302 1.886 0 2.83-.69 2.91-1.502.068-.69-.45-1.135-1.632-1.45-.874-.246-1.223-.26-1.193-.569.024-.244.372-.467 1.045-.467.663 0 1.643.13 1.9.224L16 14.195c-.395-.137-1.156-.195-1.942-.195zm4.084 1.011c1.175-.007 1.872.404 1.757 1.577-.079.812-.865 1.39-1.98 1.39-.278 0-.42-.023-.527-.045l.274-2.9c.113-.022.324-.022.476-.022z" transform="translate(-1024 -560) translate(170 508) translate(854 52)"/>
                </g>
            </g>
        </g>
    </g>
</svg>
