<svg xmlns="http://www.w3.org/2000/svg" width="32" height="32" viewBox="0 0 32 32">
    <g fill="none" fill-rule="evenodd">
        <g fill-rule="nonzero">
            <g>
                <g>
                    <g>
                        <path fill="#FFF" d="M0 0H32V32H0z" transform="translate(-441 -836) translate(170 671) translate(0 162) translate(271 3)"/>
                        <path fill="#000" d="M14.286 12.284c1.046 1.349 1.626 3.248 1.714 5.698H3.8c.088 1.733.581 3.11 1.482 4.101.93.99 2.15 1.486 3.718 1.486 1.365 0 2.469-.358 3.31-1.019.698-.578 1.22-1.403 1.599-2.504h1.771c-.348 1.377-1.016 2.504-2.004 3.386C12.456 24.477 10.916 25 9 25c-2.12 0-3.805-.688-5.054-2.037C2.639 21.587 2 19.743 2 17.487c0-2.092.61-3.826 1.859-5.258C5.137 10.743 6.822 10 8.942 10c2.381 0 4.153.743 5.344 2.284zm-8.888.606c-.9.963-1.423 2.202-1.568 3.743h10.34c-.29-3.468-2.033-5.202-5.2-5.202-1.48 0-2.672.468-3.572 1.459z" transform="translate(-441 -836) translate(170 671) translate(0 162) translate(271 3)"/>
                        <path fill="#000" d="M17.724 10L22.015 15.389 26.304 10 28.363 10 23 16.607 29 24 26.913 24 22.015 17.826 17.087 24 15 24 21.029 16.607 15.638 10z" transform="translate(-441 -836) translate(170 671) translate(0 162) translate(271 3)"/>
                    </g>
                </g>
            </g>
        </g>
    </g>
</svg>
