<svg xmlns="http://www.w3.org/2000/svg" width="34" height="33" viewBox="0 0 34 33">
    <g fill="none" fill-rule="evenodd">
        <g fill="#ffffff" fill-rule="nonzero">
            <g>
                <g>
                    <path d="M17.014 0C7.606 0 0 7.563 0 16.918c0 7.48 4.873 13.81 11.634 16.05.845.168 1.155-.364 1.155-.812 0-.392-.028-1.737-.028-3.137-4.733 1.008-5.719-2.017-5.719-2.017-.76-1.96-1.887-2.465-1.887-2.465-1.55-1.036.113-1.036.113-1.036 1.718.112 2.62 1.736 2.62 1.736 1.52 2.577 3.971 1.85 4.957 1.4.14-1.092.592-1.848 1.07-2.268-3.774-.392-7.746-1.849-7.746-8.347 0-1.849.676-3.361 1.746-4.538-.169-.42-.76-2.157.17-4.481 0 0 1.436-.449 4.676 1.736 1.352-.364 2.816-.56 4.253-.56 1.437 0 2.901.196 4.254.56 3.239-2.185 4.676-1.736 4.676-1.736.93 2.324.338 4.061.169 4.481 1.098 1.177 1.746 2.69 1.746 4.538 0 6.498-3.972 7.927-7.775 8.347.62.532 1.155 1.54 1.155 3.137 0 2.269-.028 4.09-.028 4.65 0 .448.31.98 1.155.812C29.126 30.728 34 24.398 34 16.918 34.028 7.563 26.394 0 17.014 0z" transform="translate(-754 -560) translate(170 508) translate(584 52)"/>
                    <path d="M6.462 24.29c-.03.088-.177.117-.295.059-.119-.058-.207-.174-.148-.26.03-.088.177-.117.295-.059.119.058.178.174.148.26zm.71.783c-.089.087-.266.03-.355-.087-.118-.116-.148-.29-.059-.376.089-.087.236-.03.355.087.118.145.148.318.059.376zm.71 1.015c-.119.086-.296 0-.385-.145-.118-.145-.118-.348 0-.406.118-.087.296 0 .384.145.119.145.119.319 0 .406zm.975.985c-.089.116-.296.087-.473-.058-.148-.145-.207-.348-.089-.435.089-.116.296-.087.473.058.148.116.178.319.09.435zm1.33.55c-.029.145-.236.203-.443.145-.207-.058-.325-.232-.296-.348.03-.144.237-.202.444-.144.207.058.325.202.296.347zm1.45.116c0 .145-.178.261-.385.261-.207 0-.384-.116-.384-.26 0-.146.177-.262.384-.262.207 0 .384.116.384.261zm1.36-.232c.029.145-.119.29-.326.32-.207.028-.384-.059-.414-.204-.03-.145.118-.29.325-.318.207-.03.385.058.414.202z" transform="translate(-754 -560) translate(170 508) translate(584 52)"/>
                </g>
            </g>
        </g>
    </g>
</svg>
