<svg xmlns="http://www.w3.org/2000/svg" width="33" height="33" viewBox="0 0 33 33">
    <g fill="none" fill-rule="evenodd">
        <g fill="#007AFF">
            <g>
                <g>
                    <path d="M16.5 0C25.613 0 33 7.387 33 16.5S25.613 33 16.5 33 0 25.613 0 16.5 7.387 0 16.5 0zm8.167 16.214l-8.167 6.29-8.333-6.29L6.5 17.96 16.5 26l10-8.039-.167-.175-1.666-1.572zm-3.834-3.845l-4.5 3.32-4.5-3.32-1.666 1.748 6.166 4.893 6.167-4.893-1.667-1.748zM16.333 8l-2.5 2.621 2.5 1.748 2.5-1.748L16.333 8z" transform="translate(-636 -560) translate(170 508) translate(466 52)"/>
                </g>
            </g>
        </g>
    </g>
</svg>
