<svg xmlns="http://www.w3.org/2000/svg" width="33" height="33" viewBox="0 0 33 33">
    <g fill="none" fill-rule="evenodd">
        <g fill="#676AD9">
            <g>
                <g>
                    <path d="M16.5 0C25.613 0 33 7.387 33 16.5S25.613 33 16.5 33 0 25.613 0 16.5 7.387 0 16.5 0zm3.517 8c-.907-.008-1.799.233-2.58.697-1.478.828-2.37 2.29-2.37 3.884v7.842c0 .92-.529 1.763-1.42 2.27-.512.281-1.085.429-1.667.43-1.703 0-3.087-1.216-3.087-2.7 0-.45.114-.884.36-1.278.36-.6 1.003-1.07 1.818-1.313.093-.037.171-.037.21-.037.249.005.49-.092.667-.268.178-.176.278-.417.277-.669 0-.522-.414-.936-.946-.936-.225 0-.454.036-.794.13-1.212.356-2.215 1.107-2.842 2.12-.412.693-.643 1.464-.643 2.25C7 22.951 9.236 25 11.983 25c.91 0 1.803-.228 2.597-.678 1.478-.826 2.37-2.29 2.37-3.884v-7.86c0-.922.529-1.765 1.422-2.27.51-.282 1.083-.43 1.665-.431 1.687 0 3.07 1.216 3.07 2.7 0 .45-.114.885-.36 1.277-.36.62-1.003 1.088-1.817 1.314-.094.037-.172.037-.21.037-.528 0-.944.409-.944.936 0 .251.099.492.277.669.178.176.418.273.668.268.27-.005.537-.049.794-.13 1.213-.357 2.215-1.107 2.842-2.12.414-.694.643-1.464.643-2.25C25 10.047 22.765 8 20.017 8z" transform="translate(-346 -560) translate(170 508) translate(176 52)"/>
                </g>
            </g>
        </g>
    </g>
</svg>
