<svg xmlns="http://www.w3.org/2000/svg" width="18" height="38" viewBox="0 0 18 38">
    <g fill="none" fill-rule="evenodd">
        <g fill-rule="nonzero">
            <g>
                <g>
                    <g>
                        <path fill="#10AA50" d="M17.682 15.3C15.568 6.364 11.16 3.983 10.044 2.307 9.576 1.557 9.168.794 8.82 0c-.06.794-.166 1.293-.876 1.896C6.526 3.1.534 7.789.02 17.945c-.468 9.465 7.261 15.3 8.288 15.902.785.367 1.736 0 2.204-.338 3.728-2.454 8.815-8.98 7.17-18.21" transform="translate(-608 -833) translate(170 671) translate(0 162) translate(438)"/>
                        <path fill="#B8C4C2" d="M9.74 28c-.169 2.43-.298 3.846-.74 5.23 0 0 .299 2.324.494 4.77h.727c.169-1.723.428-3.446.779-5.138-.922-.508-1.22-2.724-1.26-4.862z" transform="translate(-608 -833) translate(170 671) translate(0 162) translate(438)"/>
                        <path fill="#12924F" d="M10.436 33c-.926-.464-1.194-2.625-1.235-4.642.229-3.336.296-6.672.202-10.023C9.349 16.595 9.43 2.118 9 0c.295.71.63 1.407.993 2.089.994 1.668 4.873 4.018 6.725 12.88 1.45 9.125-3.006 15.58-6.282 18.031z" transform="translate(-608 -833) translate(170 671) translate(0 162) translate(438)"/>
                    </g>
                </g>
            </g>
        </g>
    </g>
</svg>
