<svg xmlns="http://www.w3.org/2000/svg" width="33" height="33" viewBox="0 0 33 33">
    <g fill="none" fill-rule="evenodd">
        <g fill="#0FC060">
            <g>
                <g>
                    <path d="M16.5 0C25.613 0 33 7.387 33 16.5S25.613 33 16.5 33 0 25.613 0 16.5 7.387 0 16.5 0zm.002 16.571c-2.795 0-8.502 1.285-8.502 3.75V23h17v-2.68c0-2.464-5.707-3.749-8.498-3.749zm-.004.805l1.214 3.252-1.214 1.626-1.214-1.626 1.214-3.252zM16.502 8c-2.066 0-3.643 1.39-3.643 3.214 0 1.82 1.575 3.215 3.643 3.215 2.064 0 3.643-1.394 3.643-3.215 0-1.823-1.58-3.214-3.643-3.214z" transform="translate(-175 -560) translate(170 508) translate(5 52)"/>
                </g>
            </g>
        </g>
    </g>
</svg>
