<?xml version="1.0" encoding="UTF-8"?>
<svg width="33px" height="33px" viewBox="0 0 33 33" version="1.1" xmlns="http://www.w3.org/2000/svg" xmlns:xlink="http://www.w3.org/1999/xlink">
    <title>CF5825BF-5EA9-465B-BAE1-01627CD11A07</title>
    <g id="Web-3.0" stroke="none" stroke-width="1" fill="none" fill-rule="evenodd">
        <g id="关于（PC端）" transform="translate(-518.000000, -560.000000)" fill="#029F40">
            <g id="平台" transform="translate(170.000000, 508.000000)">
                <g id="语雀" transform="translate(348.000000, 52.000000)">
                    <path d="M16.5,0 C25.6126984,0 33,7.38730163 33,16.5 C33,25.6126984 25.6126984,33 16.5,33 C7.38730163,33 0,25.6126984 0,16.5 C0,7.38730163 7.38730163,0 16.5,0 Z M9.07629264,21 C8.00920311,22.140584 7.18360192,23.024879 7.0308657,23.2029118 C6.53344099,23.7800513 12.143401,25.1182322 16.991744,22.0916739 C16.993808,22.0897175 16.997936,22.0877611 17,22.0858047 C13.7698354,22.2462299 10.8389512,21.9703768 9.3962131,21.7943004 C8.99373252,21.7453902 8.81416426,21.2934607 9.07629264,21 Z M21.7354962,9.28279579 C20.6541682,8.91064545 18.8033943,8.98507552 17.7713109,9.06570809 C17.4450658,9.09051812 17.2583469,9.44612844 17.414288,9.73764621 C18.2883785,11.3627027 17.7569479,12.1008009 17.2973322,12.6466214 C16.681519,13.3774833 15.6132716,14.6053856 14.4857207,15.8898777 L14.001,16.441 L14.2211065,16.1932486 C14.5109501,15.8663536 14.7801232,15.5624308 15.0188984,15.292507 L15.1921282,15.0966111 C15.9390037,14.2530704 17.0654725,13.8250975 18.1693709,14.0277127 C18.414761,14.0728396 18.6449847,14.1371496 18.8596878,14.2178473 C18.6604356,14.1468062 18.4481162,14.0901293 18.2230886,14.0493005 C17.1144935,13.8485454 15.9832319,14.2725895 15.2331787,15.1083865 C14.8973033,15.4812176 14.4872467,15.938038 14.0359784,16.4419745 C12.4967209,18.1688787 10.9533422,19.8875888 10.3701965,20.5349218 C10.2857125,20.6291539 10.203289,20.7213374 10.1229262,20.8114723 C9.8612318,21.1167021 10.0405028,21.5899108 10.442317,21.6431723 C11.8826664,21.8275393 14.8086981,22.116381 18.0314541,21.9504507 C18.2967339,21.7761697 18.5433016,21.5942818 18.7707068,21.4064222 L18.749,21.423 L18.5216221,21.6095247 C18.4362246,21.6763995 18.3484522,21.7424243 18.2582876,21.8075274 L17.9806002,22 C18.5161345,21.971055 19.0598763,21.9317724 19.6056699,21.8759499 C24.7886575,21.3383994 25.1990287,17.077278 24.0787154,14.972561 C23.6806554,14.2261928 23.6232035,13.7217224 23.6662924,13.2379269 C23.7073296,12.793414 23.9494485,12.3943862 24.3290418,12.1690285 L24.3290418,12.1690285 L24.8543169,11.8568357 L24.9166072,11.8082508 C25.0592745,11.6627713 25.0155016,11.402215 24.8112279,11.3213527 L24.8112279,11.3213527 L24.5588497,11.2221126 L24.3774409,11.1418533 C24.0808243,10.9966974 23.814368,10.7948289 23.6006331,10.539837 C23.2784917,10.1573491 22.6834535,9.60739359 21.7354962,9.28279579 Z" id="形状结合"></path>
                </g>
            </g>
        </g>
    </g>
</svg>