<?xml version="1.0" standalone="no"?><!DOCTYPE svg PUBLIC "-//W3C//DTD SVG 1.1//EN" "http://www.w3.org/Graphics/SVG/1.1/DTD/svg11.dtd"><svg t="1604285784009" class="icon" viewBox="0 0 1024 1024" version="1.1" xmlns="http://www.w3.org/2000/svg" p-id="6314" xmlns:xlink="http://www.w3.org/1999/xlink" width="200" height="200"><defs><style type="text/css"></style></defs><path d="M512 85.333333c70.4 0 128 57.6 128 128v128h256c23.466667 0 42.666667 19.2 42.666667 42.666667v341.333333c0 117.333333-96 213.333333-213.333334 213.333334H128c-23.466667 0-42.666667-19.2-42.666667-42.666667V384c0-23.466667 19.2-42.666667 42.666667-42.666667h147.2l136.533333-234.666666c8.533333-12.8 21.333333-21.333333 36.266667-21.333334h64z m341.333333 341.333334H597.333333c-23.466667 0-42.666667-19.2-42.666666-42.666667v-170.666667c0-23.466667-19.2-42.666667-42.666667-42.666666h-40.533333L341.333333 394.666667V853.333333h384c70.4 0 128-57.6 128-128V426.666667zM170.666667 853.333333h85.333333V426.666667H170.666667v426.666666z" fill="#ffffff" p-id="6315"></path></svg>
